<?xml version="1.0" encoding="UTF-8" standalone="no"?>
<!DOCTYPE svg PUBLIC "-//W3C//DTD SVG 1.1//EN" "http://www.w3.org/Graphics/SVG/1.1/DTD/svg11.dtd">
<svg width="100%" height="100%" viewBox="0 0 800 200" version="1.1" xmlns="http://www.w3.org/2000/svg" xmlns:xlink="http://www.w3.org/1999/xlink" xml:space="preserve" xmlns:serif="http://www.serif.com/" style="fill-rule:evenodd;clip-rule:evenodd;stroke-linejoin:round;stroke-miterlimit:2;">
    <g transform="matrix(0.471115,0,0,0.471115,85.9183,-45.6266)">
        <g transform="matrix(171.772,0,0,-171.772,158.72,368.283)">
            <path d="M0.625,0.381L0.5,0.308L0.625,0.236C0.702,0.192 0.75,0.109 0.75,0.02L0.75,0.02C0.75,-0.07 0.702,-0.152 0.625,-0.197L0.625,-0.197C0.548,-0.241 0.452,-0.241 0.375,-0.197L0.25,-0.125L0.25,0.164L0.125,0.092L0,0.164L0,-0.269L0.125,-0.341L0.25,-0.413C0.405,-0.503 0.595,-0.503 0.75,-0.413C0.905,-0.324 1,-0.159 1,0.02L1,0.02C1,0.198 0.905,0.363 0.75,0.453L0.625,0.525L0.625,0.381Z" style="fill:url(#_Linear1);fill-rule:nonzero;"/>
        </g>
        <g transform="matrix(171.772,0,0,-171.772,94.3049,253.775)">
            <path d="M0.25,0.436L0.25,0.436C0.095,0.346 0,0.181 0,0.003L0,-0.142L0.008,-0.137L0.125,-0.07L0.25,-0.142L0.25,0.003C0.25,0.092 0.298,0.174 0.375,0.219L0.375,0.219C0.452,0.264 0.548,0.264 0.625,0.219L0.625,0.219C0.702,0.174 0.75,0.092 0.75,0.003L0.75,-0.142L0.5,-0.286L0.625,-0.358L0.625,-0.503L0.875,-0.358L1,-0.286L1,0.003C1,0.181 0.905,0.346 0.75,0.436L0.75,0.436C0.673,0.48 0.586,0.503 0.5,0.503C0.414,0.503 0.327,0.48 0.25,0.436Z" style="fill:url(#_Linear2);fill-rule:nonzero;"/>
        </g>
        <g transform="matrix(150.301,0,0,-150.301,29.8903,362.088)">
            <path d="M0.437,0.564L0.429,0.559L0.286,0.476C0.109,0.374 0,0.185 0,-0.019L0,-0.019C0,-0.223 0.109,-0.411 0.286,-0.514C0.463,-0.616 0.68,-0.616 0.857,-0.514L1,-0.431L0.857,-0.349L0.857,-0.184L0.714,-0.266C0.626,-0.317 0.517,-0.317 0.429,-0.266L0.429,-0.266C0.34,-0.215 0.286,-0.121 0.286,-0.019L0.286,-0.019C0.286,0.083 0.34,0.178 0.429,0.229L0.571,0.311L0.857,0.146L0.857,0.311L1,0.394L0.714,0.559L0.571,0.641L0.437,0.564Z" style="fill:url(#_Linear3);fill-rule:nonzero;"/>
        </g>
        <g transform="matrix(0.393927,0,0,0.393927,365.765,420.701)">
            <path d="M0,-430.484L93.876,-430.484L93.876,-232.359C106.664,-247.916 119.629,-258.371 132.776,-263.737C145.911,-269.092 161.301,-271.775 178.935,-271.775C212.469,-271.775 237.804,-262.52 254.918,-244.027C272.035,-225.527 280.593,-200.542 280.593,-169.084L280.593,0L186.717,0L186.717,-134.333C186.717,-147.817 185.677,-158.709 183.604,-167.006C181.527,-175.305 178.068,-181.701 173.229,-186.197C164.931,-193.459 154.899,-197.088 143.147,-197.088C127.24,-197.088 115.053,-192.333 106.584,-182.828C98.105,-173.313 93.876,-159.745 93.876,-142.111L93.876,0L0,0L0,-430.484Z" style="fill:rgb(9,15,50);fill-rule:nonzero;"/>
        </g>
        <g transform="matrix(0.393927,0,0,0.393927,-12.0572,-59.051)">
            <path d="M1393.12,1217.87L1299.24,1217.87L1299.24,951.801L1393.12,951.801L1393.12,1217.87ZM1293.02,849.626C1293.02,842.364 1294.39,835.541 1297.17,829.137C1299.93,822.744 1303.73,817.128 1308.58,812.282C1313.42,807.444 1319.03,803.644 1325.43,800.871C1331.83,798.109 1338.66,796.722 1345.92,796.722C1353.18,796.722 1360.01,798.109 1366.41,800.871C1372.8,803.644 1378.42,807.444 1383.27,812.282C1388.1,817.128 1391.9,822.744 1394.68,829.137C1397.44,835.541 1398.83,842.364 1398.83,849.626C1398.83,856.885 1397.44,863.717 1394.68,870.113C1391.9,876.515 1388.1,882.13 1383.27,886.97C1378.42,891.815 1372.8,895.614 1366.41,898.378C1360.01,901.151 1353.18,902.527 1345.92,902.527C1338.66,902.527 1331.83,901.151 1325.43,898.378C1319.03,895.614 1313.42,891.815 1308.58,886.97C1303.73,882.13 1299.93,876.515 1297.17,870.113C1294.39,863.717 1293.02,856.885 1293.02,849.626" style="fill:rgb(9,15,50);fill-rule:nonzero;"/>
        </g>
        <g transform="matrix(0.393927,0,0,0.393927,589.788,420.701)">
            <path d="M0,-266.07L63.278,-129.664L127.59,-266.07L232.358,-266.07L93.876,0L31.121,0L-105.805,-266.07L0,-266.07Z" style="fill:rgb(9,15,50);fill-rule:nonzero;"/>
        </g>
        <g transform="matrix(0.393927,0,0,0.393927,762.349,383.517)">
            <path d="M0,-77.283C-3.112,-90.418 -9.515,-100.963 -19.189,-108.921C-28.875,-116.869 -40.633,-120.848 -54.46,-120.848C-68.981,-120.848 -80.828,-117.04 -89.987,-109.437C-99.152,-101.829 -104.947,-91.107 -107.361,-77.283L0,-77.283ZM-109.954,-22.822C-109.954,17.634 -90.943,37.861 -52.903,37.861C-32.504,37.861 -17.117,29.562 -6.742,12.965L84.021,12.965C65.692,73.826 19.88,104.248 -53.421,104.248C-75.902,104.248 -96.47,100.876 -115.143,94.134C-133.812,87.392 -149.81,77.796 -163.117,65.349C-176.432,52.901 -186.717,38.039 -193.979,20.743C-201.237,3.459 -204.87,-15.901 -204.87,-37.346C-204.87,-59.47 -201.417,-79.436 -194.495,-97.249C-187.583,-115.053 -177.729,-130.183 -164.934,-142.632C-152.146,-155.079 -136.666,-164.674 -118.513,-171.42C-100.358,-178.162 -79.872,-181.531 -57.053,-181.531C-34.58,-181.531 -14.354,-178.162 3.63,-171.42C21.606,-164.674 36.823,-154.903 49.271,-142.114C61.72,-129.317 71.225,-113.67 77.8,-95.177C84.362,-76.673 87.651,-55.837 87.651,-32.678L87.651,-22.822L-109.954,-22.822Z" style="fill:rgb(9,15,50);fill-rule:nonzero;"/>
        </g>
        <g transform="matrix(0.736786,0,0,0.736786,62.3389,159.755)">
            <g transform="matrix(313.182,0,0,313.182,1070.35,355.752)">
                <path d="M0.389,-0.74L0.389,-0.43C0.364,-0.448 0.333,-0.466 0.251,-0.466C0.098,-0.466 0.022,-0.347 0.022,-0.228C0.022,-0.109 0.098,0.01 0.251,0.01C0.323,0.01 0.366,-0.013 0.389,-0.029L0.389,0L0.542,0L0.542,-0.74L0.389,-0.74ZM0.197,-0.232C0.197,-0.284 0.24,-0.327 0.292,-0.327C0.344,-0.327 0.387,-0.284 0.387,-0.232C0.387,-0.18 0.344,-0.137 0.292,-0.137C0.24,-0.137 0.197,-0.18 0.197,-0.232Z" style="fill:rgb(10,199,239);fill-rule:nonzero;"/>
            </g>
            <g transform="matrix(313.182,0,0,313.182,1253.56,355.752)">
                <path d="M0.531,-0.231C0.531,-0.352 0.449,-0.475 0.28,-0.475C0.111,-0.475 0.026,-0.352 0.026,-0.231C0.026,-0.108 0.111,0.013 0.28,0.013C0.449,0.013 0.531,-0.108 0.531,-0.231ZM0.184,-0.23C0.184,-0.282 0.227,-0.325 0.279,-0.325C0.333,-0.325 0.374,-0.282 0.374,-0.23C0.374,-0.178 0.333,-0.135 0.279,-0.135C0.227,-0.135 0.184,-0.178 0.184,-0.23Z" style="fill:rgb(10,199,239);fill-rule:nonzero;"/>
            </g>
            <g transform="matrix(313.182,0,0,313.182,1426.43,355.752)">
                <path d="M0.187,-0.227C0.187,-0.281 0.226,-0.317 0.285,-0.317C0.343,-0.317 0.365,-0.303 0.389,-0.289L0.389,-0.439C0.359,-0.452 0.309,-0.466 0.248,-0.466C0.092,-0.466 0.014,-0.346 0.014,-0.227C0.014,-0.108 0.092,0.011 0.248,0.011C0.328,0.011 0.364,-0.008 0.389,-0.023L0.389,-0.177C0.367,-0.157 0.34,-0.144 0.285,-0.144C0.226,-0.144 0.187,-0.173 0.187,-0.227Z" style="fill:rgb(10,199,239);fill-rule:nonzero;"/>
            </g>
            <g transform="matrix(313.182,0,0,313.182,1556.72,355.752)">
                <path d="M0.35,-0.331L0.391,-0.435C0.346,-0.454 0.317,-0.467 0.235,-0.467C0.139,-0.467 0.039,-0.413 0.039,-0.304C0.039,-0.234 0.08,-0.187 0.179,-0.172C0.223,-0.165 0.24,-0.15 0.24,-0.13C0.24,-0.11 0.221,-0.101 0.189,-0.101C0.143,-0.101 0.095,-0.127 0.068,-0.146L0.011,-0.051C0.054,-0.019 0.116,0.012 0.201,0.012C0.339,0.012 0.408,-0.056 0.408,-0.153C0.408,-0.219 0.361,-0.283 0.268,-0.298C0.23,-0.304 0.216,-0.314 0.216,-0.329C0.216,-0.345 0.229,-0.357 0.261,-0.357C0.302,-0.357 0.327,-0.344 0.35,-0.331Z" style="fill:rgb(10,199,239);fill-rule:nonzero;"/>
            </g>
        </g>
    </g>
    <defs>
        <linearGradient id="_Linear1" x1="0" y1="0" x2="1" y2="0" gradientUnits="userSpaceOnUse" gradientTransform="matrix(1,0,0,-1,0,0.02233)"><stop offset="0" style="stop-color:rgb(127,73,221);stop-opacity:1"/><stop offset="0.5" style="stop-color:rgb(0,163,255);stop-opacity:1"/><stop offset="1" style="stop-color:rgb(23,249,218);stop-opacity:1"/></linearGradient>
        <linearGradient id="_Linear2" x1="0" y1="0" x2="1" y2="0" gradientUnits="userSpaceOnUse" gradientTransform="matrix(1,0,0,-1,0,1.89014e-06)"><stop offset="0" style="stop-color:rgb(127,73,221);stop-opacity:1"/><stop offset="0.5" style="stop-color:rgb(0,163,255);stop-opacity:1"/><stop offset="1" style="stop-color:rgb(23,249,218);stop-opacity:1"/></linearGradient>
        <linearGradient id="_Linear3" x1="0" y1="0" x2="1" y2="0" gradientUnits="userSpaceOnUse" gradientTransform="matrix(1,0,0,-1,0,0.0255199)"><stop offset="0" style="stop-color:rgb(127,73,221);stop-opacity:1"/><stop offset="0.5" style="stop-color:rgb(0,163,255);stop-opacity:1"/><stop offset="1" style="stop-color:rgb(23,249,218);stop-opacity:1"/></linearGradient>
    </defs>
</svg>
